<svg width="1080" height="794" viewBox="0 0 1080 794" fill="none" xmlns="http://www.w3.org/2000/svg">
<g opacity="0.07">
<path d="M1312.47 270.985C1182.93 81.9868 965.442 -42 719 -42C321.907 -42 0 279.907 0 677C0 734.771 6.81372 790.95 19.6807 844.779L385.824 478.636C420.922 443.538 477.828 443.538 512.926 478.636L808.875 774.585L1312.47 270.985Z" fill="#8794BA"/>
<path d="M1397.93 439.734L872.426 965.239C837.328 1000.34 780.422 1000.34 745.324 965.239L449.375 669.29L91.1038 1027.56C214.1 1247.39 449.195 1396 719 1396C1116.09 1396 1438 1074.09 1438 677C1438 593.861 1423.89 514.017 1397.93 439.734Z" fill="#8794BA"/>
</g>
</svg>
